<mxfile host="app.diagrams.net" agent="Mozilla/5.0 (Windows NT 10.0; Win64; x64) AppleWebKit/537.36 (KHTML, like Gecko) Chrome/132.0.0.0 Safari/537.36 OPR/117.0.0.0" version="26.2.10">
  <diagram name="Página-1" id="sNgQ-cvLtitT4OdrptVm">
    <mxGraphModel dx="1623" dy="871" grid="1" gridSize="10" guides="1" tooltips="1" connect="1" arrows="1" fold="1" page="1" pageScale="1" pageWidth="827" pageHeight="1169" math="0" shadow="0">
      <root>
        <mxCell id="0" />
        <mxCell id="1" parent="0" />
        <mxCell id="4GyXXm9jP4rBRCgJYrOC-59" value="" style="rounded=0;whiteSpace=wrap;html=1;strokeColor=#AC2525;" parent="1" vertex="1">
          <mxGeometry x="120" y="438.13" width="309" height="591.87" as="geometry" />
        </mxCell>
        <mxCell id="4GyXXm9jP4rBRCgJYrOC-11" value="" style="rounded=0;whiteSpace=wrap;html=1;strokeColor=#99CCFF;" parent="1" vertex="1">
          <mxGeometry x="399" y="140" width="290" height="200" as="geometry" />
        </mxCell>
        <mxCell id="4GyXXm9jP4rBRCgJYrOC-5" value="&lt;span style=&quot;font-size: 24px;&quot;&gt;Navegador (cliente)&lt;/span&gt;" style="rounded=1;whiteSpace=wrap;html=1;" parent="1" vertex="1">
          <mxGeometry x="80" y="150" width="179" height="110" as="geometry" />
        </mxCell>
        <mxCell id="4GyXXm9jP4rBRCgJYrOC-6" value="&lt;font style=&quot;font-size: 24px;&quot;&gt;React App&lt;/font&gt;" style="rounded=0;whiteSpace=wrap;html=1;" parent="1" vertex="1">
          <mxGeometry x="461.5" y="190" width="165" height="100" as="geometry" />
        </mxCell>
        <mxCell id="4GyXXm9jP4rBRCgJYrOC-49" style="edgeStyle=orthogonalEdgeStyle;rounded=0;orthogonalLoop=1;jettySize=auto;html=1;exitX=0.5;exitY=1;exitDx=0;exitDy=0;entryX=0.5;entryY=0;entryDx=0;entryDy=0;" parent="1" source="4GyXXm9jP4rBRCgJYrOC-7" target="4GyXXm9jP4rBRCgJYrOC-8" edge="1">
          <mxGeometry relative="1" as="geometry" />
        </mxCell>
        <mxCell id="4GyXXm9jP4rBRCgJYrOC-50" value="&lt;font style=&quot;font-size: 18px;&quot;&gt;ENCAMINHA&lt;/font&gt;" style="edgeLabel;html=1;align=center;verticalAlign=middle;resizable=0;points=[];fontStyle=1" parent="4GyXXm9jP4rBRCgJYrOC-49" vertex="1" connectable="0">
          <mxGeometry x="-0.3429" y="-4" relative="1" as="geometry">
            <mxPoint x="4" y="7" as="offset" />
          </mxGeometry>
        </mxCell>
        <mxCell id="4GyXXm9jP4rBRCgJYrOC-7" value="&lt;font style=&quot;font-size: 24px;&quot;&gt;URL Dispatcher&lt;/font&gt;" style="rounded=0;whiteSpace=wrap;html=1;fontStyle=0" parent="1" vertex="1">
          <mxGeometry x="200" y="508.13" width="149" height="90" as="geometry" />
        </mxCell>
        <mxCell id="4GyXXm9jP4rBRCgJYrOC-34" style="edgeStyle=orthogonalEdgeStyle;rounded=0;orthogonalLoop=1;jettySize=auto;html=1;exitX=0.25;exitY=1;exitDx=0;exitDy=0;entryX=0.25;entryY=0;entryDx=0;entryDy=0;" parent="1" source="4GyXXm9jP4rBRCgJYrOC-8" target="4GyXXm9jP4rBRCgJYrOC-9" edge="1">
          <mxGeometry relative="1" as="geometry" />
        </mxCell>
        <mxCell id="4GyXXm9jP4rBRCgJYrOC-37" value="&lt;font style=&quot;font-size: 18px;&quot;&gt;MANIPULAÇÃO&lt;/font&gt;&lt;div&gt;&lt;font size=&quot;3&quot;&gt;DOS&lt;/font&gt;&lt;/div&gt;&lt;div&gt;&lt;font size=&quot;3&quot;&gt;DADOS&lt;/font&gt;&lt;/div&gt;" style="edgeLabel;html=1;align=center;verticalAlign=middle;resizable=0;points=[];fontStyle=1" parent="4GyXXm9jP4rBRCgJYrOC-34" vertex="1" connectable="0">
          <mxGeometry x="-0.3131" relative="1" as="geometry">
            <mxPoint y="42" as="offset" />
          </mxGeometry>
        </mxCell>
        <mxCell id="4GyXXm9jP4rBRCgJYrOC-57" style="edgeStyle=orthogonalEdgeStyle;rounded=0;orthogonalLoop=1;jettySize=auto;html=1;entryX=0.5;entryY=1;entryDx=0;entryDy=0;" parent="1" target="4GyXXm9jP4rBRCgJYrOC-11" edge="1">
          <mxGeometry relative="1" as="geometry">
            <mxPoint x="540.8400000000001" y="411.52999999999986" as="targetPoint" />
            <mxPoint x="349" y="678.13" as="sourcePoint" />
          </mxGeometry>
        </mxCell>
        <mxCell id="4GyXXm9jP4rBRCgJYrOC-58" value="&lt;font style=&quot;font-size: 18px;&quot;&gt;JSON&lt;/font&gt;" style="edgeLabel;html=1;align=center;verticalAlign=middle;resizable=0;points=[];fontStyle=1" parent="4GyXXm9jP4rBRCgJYrOC-57" vertex="1" connectable="0">
          <mxGeometry x="0.5611" y="1" relative="1" as="geometry">
            <mxPoint as="offset" />
          </mxGeometry>
        </mxCell>
        <mxCell id="4GyXXm9jP4rBRCgJYrOC-8" value="&lt;font style=&quot;font-size: 24px;&quot;&gt;View&lt;/font&gt;" style="rounded=0;whiteSpace=wrap;html=1;" parent="1" vertex="1">
          <mxGeometry x="200" y="648.13" width="149" height="80" as="geometry" />
        </mxCell>
        <mxCell id="4GyXXm9jP4rBRCgJYrOC-36" style="edgeStyle=orthogonalEdgeStyle;rounded=0;orthogonalLoop=1;jettySize=auto;html=1;exitX=0.75;exitY=0;exitDx=0;exitDy=0;entryX=0.75;entryY=1;entryDx=0;entryDy=0;" parent="1" source="4GyXXm9jP4rBRCgJYrOC-9" target="4GyXXm9jP4rBRCgJYrOC-8" edge="1">
          <mxGeometry relative="1" as="geometry" />
        </mxCell>
        <mxCell id="4GyXXm9jP4rBRCgJYrOC-38" value="&lt;font style=&quot;font-size: 18px;&quot;&gt;INSTÂNCIA&lt;/font&gt;" style="edgeLabel;html=1;align=center;verticalAlign=middle;resizable=0;points=[];fontStyle=1" parent="4GyXXm9jP4rBRCgJYrOC-36" vertex="1" connectable="0">
          <mxGeometry x="0.4274" relative="1" as="geometry">
            <mxPoint as="offset" />
          </mxGeometry>
        </mxCell>
        <mxCell id="4GyXXm9jP4rBRCgJYrOC-9" value="&lt;font style=&quot;font-size: 24px;&quot;&gt;Model&lt;/font&gt;" style="rounded=0;whiteSpace=wrap;html=1;" parent="1" vertex="1">
          <mxGeometry x="200" y="868.13" width="149" height="90" as="geometry" />
        </mxCell>
        <mxCell id="4GyXXm9jP4rBRCgJYrOC-54" style="edgeStyle=orthogonalEdgeStyle;rounded=0;orthogonalLoop=1;jettySize=auto;html=1;exitX=-0.002;exitY=0.679;exitDx=0;exitDy=0;exitPerimeter=0;entryX=1;entryY=0.25;entryDx=0;entryDy=0;" parent="1" source="4GyXXm9jP4rBRCgJYrOC-10" target="4GyXXm9jP4rBRCgJYrOC-9" edge="1">
          <mxGeometry relative="1" as="geometry" />
        </mxCell>
        <mxCell id="4GyXXm9jP4rBRCgJYrOC-67" value="&lt;span style=&quot;font-size: 18px;&quot;&gt;DADOS&lt;/span&gt;&lt;div&gt;&lt;span style=&quot;font-size: 18px;&quot;&gt;RETORNADOS&lt;/span&gt;&lt;/div&gt;" style="edgeLabel;html=1;align=center;verticalAlign=middle;resizable=0;points=[];fontStyle=1" parent="4GyXXm9jP4rBRCgJYrOC-54" vertex="1" connectable="0">
          <mxGeometry x="0.0787" y="-1" relative="1" as="geometry">
            <mxPoint y="-14" as="offset" />
          </mxGeometry>
        </mxCell>
        <mxCell id="4GyXXm9jP4rBRCgJYrOC-10" value="&lt;font style=&quot;font-size: 24px;&quot;&gt;SGBD&lt;/font&gt;" style="shape=cylinder3;whiteSpace=wrap;html=1;boundedLbl=1;backgroundOutline=1;size=15;" parent="1" vertex="1">
          <mxGeometry x="579" y="558.13" width="163.5" height="210" as="geometry" />
        </mxCell>
        <mxCell id="4GyXXm9jP4rBRCgJYrOC-12" value="&lt;font style=&quot;font-size: 36px;&quot;&gt;FRONTEND&lt;/font&gt;" style="text;html=1;align=center;verticalAlign=middle;resizable=0;points=[];autosize=1;strokeColor=#99CCFF;fillColor=none;" parent="1" vertex="1">
          <mxGeometry x="434" y="80" width="220" height="60" as="geometry" />
        </mxCell>
        <mxCell id="4GyXXm9jP4rBRCgJYrOC-51" style="edgeStyle=orthogonalEdgeStyle;rounded=0;orthogonalLoop=1;jettySize=auto;html=1;entryX=0.5;entryY=1;entryDx=0;entryDy=0;entryPerimeter=0;" parent="1" source="4GyXXm9jP4rBRCgJYrOC-9" target="4GyXXm9jP4rBRCgJYrOC-10" edge="1">
          <mxGeometry relative="1" as="geometry" />
        </mxCell>
        <mxCell id="4GyXXm9jP4rBRCgJYrOC-53" value="&lt;font style=&quot;font-size: 18px;&quot;&gt;QUERY&lt;/font&gt;&lt;div&gt;&lt;font size=&quot;3&quot;&gt;SQL&lt;/font&gt;&lt;/div&gt;" style="edgeLabel;html=1;align=center;verticalAlign=middle;resizable=0;points=[];fontStyle=1" parent="4GyXXm9jP4rBRCgJYrOC-51" vertex="1" connectable="0">
          <mxGeometry x="-0.427" y="1" relative="1" as="geometry">
            <mxPoint x="60" y="1" as="offset" />
          </mxGeometry>
        </mxCell>
        <mxCell id="4GyXXm9jP4rBRCgJYrOC-62" style="edgeStyle=orthogonalEdgeStyle;rounded=0;orthogonalLoop=1;jettySize=auto;html=1;entryX=0.005;entryY=0.271;entryDx=0;entryDy=0;entryPerimeter=0;exitX=1.018;exitY=0.403;exitDx=0;exitDy=0;exitPerimeter=0;" parent="1" source="4GyXXm9jP4rBRCgJYrOC-5" target="4GyXXm9jP4rBRCgJYrOC-11" edge="1">
          <mxGeometry relative="1" as="geometry" />
        </mxCell>
        <mxCell id="4GyXXm9jP4rBRCgJYrOC-63" value="&lt;font style=&quot;font-size: 18px;&quot;&gt;GET&lt;/font&gt;" style="edgeLabel;html=1;align=center;verticalAlign=middle;resizable=0;points=[];fontStyle=1" parent="4GyXXm9jP4rBRCgJYrOC-62" vertex="1" connectable="0">
          <mxGeometry x="-0.0675" relative="1" as="geometry">
            <mxPoint as="offset" />
          </mxGeometry>
        </mxCell>
        <mxCell id="4GyXXm9jP4rBRCgJYrOC-65" style="edgeStyle=orthogonalEdgeStyle;rounded=0;orthogonalLoop=1;jettySize=auto;html=1;entryX=1.008;entryY=0.818;entryDx=0;entryDy=0;entryPerimeter=0;" parent="1" source="4GyXXm9jP4rBRCgJYrOC-11" target="4GyXXm9jP4rBRCgJYrOC-5" edge="1">
          <mxGeometry relative="1" as="geometry" />
        </mxCell>
        <mxCell id="4GyXXm9jP4rBRCgJYrOC-66" value="&lt;font style=&quot;font-size: 18px;&quot;&gt;RENDER&lt;/font&gt;" style="edgeLabel;html=1;align=center;verticalAlign=middle;resizable=0;points=[];fontStyle=1" parent="4GyXXm9jP4rBRCgJYrOC-65" vertex="1" connectable="0">
          <mxGeometry x="0.06" y="1" relative="1" as="geometry">
            <mxPoint as="offset" />
          </mxGeometry>
        </mxCell>
        <mxCell id="4GyXXm9jP4rBRCgJYrOC-70" value="&lt;span style=&quot;font-size: 36px;&quot;&gt;BACKEND&lt;/span&gt;" style="text;html=1;align=center;verticalAlign=middle;resizable=0;points=[];autosize=1;strokeColor=#AC2525;fillColor=none;" parent="1" vertex="1">
          <mxGeometry x="174.5" y="378.13" width="200" height="60" as="geometry" />
        </mxCell>
        <mxCell id="lrAKQ62q8BcIqRZDeFHq-1" style="edgeStyle=orthogonalEdgeStyle;rounded=0;orthogonalLoop=1;jettySize=auto;html=1;exitX=0.25;exitY=1;exitDx=0;exitDy=0;entryX=1.007;entryY=0.576;entryDx=0;entryDy=0;entryPerimeter=0;" edge="1" parent="1" source="4GyXXm9jP4rBRCgJYrOC-11" target="4GyXXm9jP4rBRCgJYrOC-7">
          <mxGeometry relative="1" as="geometry" />
        </mxCell>
        <mxCell id="lrAKQ62q8BcIqRZDeFHq-4" value="&lt;font style=&quot;font-size: 18px;&quot;&gt;ENDPOINT&lt;/font&gt;" style="edgeLabel;html=1;align=center;verticalAlign=middle;resizable=0;points=[];fontStyle=1" vertex="1" connectable="0" parent="lrAKQ62q8BcIqRZDeFHq-1">
          <mxGeometry x="-0.5565" y="2" relative="1" as="geometry">
            <mxPoint as="offset" />
          </mxGeometry>
        </mxCell>
      </root>
    </mxGraphModel>
  </diagram>
</mxfile>
